<svg width="200" height="200" viewBox="0 0 200 200" fill="none" xmlns="http://www.w3.org/2000/svg">
<path d="M30.9316 118.201L28.1061 90.0469L52.2661 90.2028L53.2839 90.2094L53.2725 89.1917L52.7854 45.4118L52.7849 45.3726L52.7814 45.3336L50.1359 15.8061C50.2111 15.8041 50.29 15.802 50.3728 15.7998C51.2232 15.7769 52.475 15.7443 54.0799 15.7051C57.2896 15.6268 61.9114 15.5223 67.5587 15.4178C78.8537 15.2089 94.2493 15 110.653 15C132.492 15 148.277 21.6404 158.485 31.4883C168.697 41.3394 173.408 54.4742 172.972 67.6264C172.103 93.9016 150.667 120.319 111.262 120.319H106.607L53.5365 118.938V118.795L52.5627 118.77L30.9316 118.201ZM87.4918 45.3209L87.4805 44.321L86.4578 44.3326L86.4924 45.3548L87.9743 89.0736L88.0072 90.0457L88.9799 90.0397L121.844 89.8358L122.139 89.834L122.386 89.6727C125.598 87.5718 128.969 83.7063 131.581 79.1469C134.198 74.5796 136.117 69.2061 136.319 64.0332C136.522 58.8358 134.986 53.7909 130.638 50.07C126.322 46.3764 119.384 44.117 109.05 44.117C107.277 44.117 101.881 44.1681 96.9359 44.219C94.4617 44.2445 92.0978 44.27 90.3526 44.2891L88.2621 44.3122L87.6839 44.3187L87.5324 44.3204L87.4936 44.3208L87.4838 44.3209L87.4814 44.321L87.4807 44.321C87.4806 44.321 87.4805 44.321 87.4918 45.3209ZM32.7535 136.567L148.513 136.027L144.253 162.369L87.6738 161.265L86.6542 161.245V162.265V184.983L54.1363 184.425L53.9221 161.582L53.913 160.61L52.9407 160.592L35.1328 160.262L32.7535 136.567Z" stroke="#DED4AB" stroke-width="2"/>
</svg>
