<svg width="120" height="120" viewBox="0 0 120 120" fill="none" xmlns="http://www.w3.org/2000/svg">
<path fill-rule="evenodd" clip-rule="evenodd" d="M76.07 101.46C65.75 101.46 51.07 100.94 41.28 100.94C22.97 100.94 18 90.11 18 76.34C18 62.57 18.27 47.34 18.27 42.12C18.27 26.65 25.12 18.06 42.1 18.06C48.38 18.06 72 18 80.04 18C95.49 18 102.9 24.38 102.9 43.06C102.9 47.67 102.56 56.3 102.56 80.23C102.56 95.28 95.45 101.46 76.07 101.46ZM60.57 37.91C31.75 37.91 30.36 81.77 61.06 81.77C89.1 81.77 89.28 37.91 60.57 37.91ZM86.62 29.22C78.29 29.22 77.89 41.83 86.77 41.83C94.87 41.81 94.93 29.22 86.62 29.22Z" fill="#DED4AB"/>
</svg>
