<svg width="120" height="120" viewBox="0 0 120 120" fill="none" xmlns="http://www.w3.org/2000/svg">
<path fill-rule="evenodd" clip-rule="evenodd" d="M104.36 37.95V38.04L103.47 96.66L15 96.95L15.14 38.01L59.68 13L104.21 37.95H104.36ZM60.26 20.5L25.87 37.99H93.02L60.26 20.5ZM20.76 43.66L20.38 91.6L97.51 91.16L97.97 44.16L20.76 43.66ZM79.76 77.95C74.84 77.95 71.14 76.52 68.58 74.25C69.9446 73.873 71.2212 73.2301 72.3367 72.3583C73.4521 71.4866 74.3844 70.403 75.08 69.17L73.34 67.6C71.8711 68.682 70.1499 69.3705 68.34 69.6C62.04 70.2 59.75 66.13 56.56 66.44C53.92 66.69 52.06 67.78 50.11 71.14L46.74 69.06C48.96 64.41 51.68 61.97 54.92 61.4C59.92 60.52 62.72 64.65 67 64.4C69.58 64.24 72.55 62.8 75 59.15L73.27 57.39C69.27 60.88 64.64 59.85 60.57 57.73C58.32 56.56 52.89 54.16 47.86 60.8L45.05 58.54C47.59 53.92 50.48 51.63 54.9 50.89C60.66 49.89 64.29 54.33 67.76 54H68.06C69.5051 52.464 71.2594 51.2519 73.2072 50.4435C75.155 49.635 77.252 49.2487 79.36 49.31C97.22 49.23 96.86 77.84 79.79 77.95H79.76Z" fill="#DED4AB"/>
</svg>
