<svg width="200" height="200" viewBox="0 0 200 200" fill="none" xmlns="http://www.w3.org/2000/svg">
<path d="M111.958 137.169L111.34 136.778L110.78 137.249L86.7504 157.446L81.0366 158.222L65.9334 106.027L65.7867 105.52L65.2857 105.355L13.9835 88.4543L177.336 26.0042L183.805 26.1493L158.104 166.363L111.958 137.169ZM153.099 50.8448L152.759 50.8044L152.466 50.9808L76.3287 96.7598L75.7045 97.1351L75.8702 97.8444L84.6378 135.357L84.8639 136.325L85.8328 136.105L88.2351 135.56L88.7944 135.433L88.9673 134.886L98.0361 106.205L158.672 53.1886L160.365 51.7081L158.132 51.4427L153.099 50.8448Z" stroke="#DED4AB" stroke-width="2"/>
</svg>
