<svg width="120" height="120" viewBox="0 0 120 120" fill="none" xmlns="http://www.w3.org/2000/svg">
<path fill-rule="evenodd" clip-rule="evenodd" d="M76.07 101.46C65.75 101.46 51.07 100.94 41.28 100.94C22.97 100.94 18 90.11 18 76.34C18 62.57 18.27 47.34 18.27 42.12C18.27 26.65 25.12 18.06 42.1 18.06C48.38 18.06 72 18 80.04 18C95.49 18 102.9 24.38 102.9 43.06C102.9 47.67 102.56 56.3 102.56 80.23C102.56 95.28 95.45 101.46 76.07 101.46ZM92.07 47.95L81.45 40.39L65.83 57.61L66.31 42.31L51.75 42.07L53.45 47.66L53.79 64.66C48.49 63.74 42.03 50.45 42.44 42.66L28.57 42.85C31.95 70.26 52.21 83.57 65.14 81.69L65.45 71.57C66.45 71.09 67.81 70.35 69.45 69.37L78.8 81.64L94.18 80.81L79.45 62.22C84.3952 58.1685 88.6593 53.3508 92.08 47.95H92.07Z" fill="#DED4AB"/>
</svg>
